<svg width="22" height="22" viewBox="0 0 22 22" fill="none" xmlns="http://www.w3.org/2000/svg">
<g clip-path="url(#clip0_1_103)">
<path d="M21.0833 17.4167C21.0833 17.9029 20.8901 18.3692 20.5463 18.713C20.2025 19.0568 19.7362 19.25 19.25 19.25H2.74996C2.26373 19.25 1.79741 19.0568 1.4536 18.713C1.10978 18.3692 0.916626 17.9029 0.916626 17.4167V7.33333C0.916626 6.8471 1.10978 6.38079 1.4536 6.03697C1.79741 5.69315 2.26373 5.5 2.74996 5.5H6.41663L8.24996 2.75H13.75L15.5833 5.5H19.25C19.7362 5.5 20.2025 5.69315 20.5463 6.03697C20.8901 6.38079 21.0833 6.8471 21.0833 7.33333V17.4167Z" stroke="white" stroke-width="2" stroke-linecap="round" stroke-linejoin="round"/>
<path d="M11 15.5833C13.0251 15.5833 14.6667 13.9417 14.6667 11.9167C14.6667 9.89162 13.0251 8.25 11 8.25C8.975 8.25 7.33337 9.89162 7.33337 11.9167C7.33337 13.9417 8.975 15.5833 11 15.5833Z" stroke="white" stroke-width="2" stroke-linecap="round" stroke-linejoin="round"/>
</g>
<defs>
<clipPath id="clip0_1_103">
<rect width="22" height="22" fill="white"/>
</clipPath>
</defs>
</svg>
